<?xml version="1.0" encoding="UTF-8" standalone="no"?><!-- Generator: Gravit.io --><svg xmlns="http://www.w3.org/2000/svg" xmlns:xlink="http://www.w3.org/1999/xlink" style="isolation:isolate" viewBox="0 0 100 100" width="100pt" height="100pt"><defs><clipPath id="_clipPath_ybIx834oWiWuUOVFE3k8vgvCGPjBcxjz"><rect width="100" height="100"/></clipPath></defs><g clip-path="url(#_clipPath_ybIx834oWiWuUOVFE3k8vgvCGPjBcxjz)"><path d="M 2.531 43.891 L 25.661 20.761 C 29.035 17.386 34.515 17.386 37.889 20.761 L 37.889 20.761 C 41.264 24.135 41.264 29.615 37.889 32.989 L 14.759 56.119 C 11.385 59.494 5.905 59.494 2.531 56.119 L 2.531 56.119 C -0.844 52.745 -0.844 47.265 2.531 43.891 Z" style="stroke:none;fill:#FF6C6C;stroke-miterlimit:10;"/><path d="M 8.646 41.35 L 91.354 41.35 C 96.126 41.35 100 45.226 100 50 L 100 50 C 100 54.774 96.126 58.65 91.354 58.65 L 8.646 58.65 C 3.874 58.65 0 54.774 0 50 L 0 50 C 0 45.226 3.874 41.35 8.646 41.35 Z" style="stroke:none;fill:#FF6C6C;stroke-miterlimit:10;"/><path d="M 14.759 43.881 L 37.889 67.011 C 41.264 70.385 41.264 75.865 37.889 79.239 L 37.889 79.239 C 34.515 82.614 29.035 82.614 25.661 79.239 L 2.531 56.109 C -0.844 52.735 -0.844 47.255 2.531 43.881 L 2.531 43.881 C 5.905 40.506 11.385 40.506 14.759 43.881 Z" style="stroke:none;fill:#FF6C6C;stroke-miterlimit:10;"/></g></svg>