<?xml version="1.0" encoding="UTF-8" standalone="no"?><!-- Generator: Gravit.io --><svg xmlns="http://www.w3.org/2000/svg" xmlns:xlink="http://www.w3.org/1999/xlink" style="isolation:isolate" viewBox="0 0 100 100" width="100pt" height="100pt"><defs><clipPath id="_clipPath_NgrQg8OxGNvgPfVJARroQo05qobraMAl"><rect width="100" height="100"/></clipPath></defs><g clip-path="url(#_clipPath_NgrQg8OxGNvgPfVJARroQo05qobraMAl)"><path d=" M 50 37.772 L 14.758 2.531 C 11.384 -0.844 5.905 -0.844 2.531 2.531 L 2.531 2.531 C -0.844 5.905 -0.844 11.384 2.531 14.758 L 37.772 50 L 2.531 85.242 C -0.844 88.616 -0.844 94.095 2.531 97.469 L 2.531 97.469 C 5.905 100.844 11.384 100.844 14.758 97.469 L 50 62.228 L 85.242 97.469 C 88.616 100.844 94.095 100.844 97.469 97.469 L 97.469 97.469 C 100.844 94.095 100.844 88.616 97.469 85.242 L 62.228 50 L 97.469 14.758 C 100.844 11.384 100.844 5.905 97.469 2.531 L 97.469 2.531 C 94.095 -0.844 88.616 -0.844 85.242 2.531 L 50 37.772 Z " fill-rule="evenodd" fill="rgb(255,108,108)"/></g></svg>