<?xml version="1.0" encoding="UTF-8" standalone="no"?><!-- Generator: Gravit.io --><svg xmlns="http://www.w3.org/2000/svg" xmlns:xlink="http://www.w3.org/1999/xlink" style="isolation:isolate" viewBox="0 0 100 100" width="100pt" height="100pt"><defs><clipPath id="_clipPath_nNmRA5BksAxRETDuSdpQ7qJJStSKFHJU"><rect width="100" height="100"/></clipPath></defs><g clip-path="url(#_clipPath_nNmRA5BksAxRETDuSdpQ7qJJStSKFHJU)"><path d="M 8.646 6.77 L 91.354 6.77 C 96.126 6.77 100 10.644 100 15.415 L 100 15.415 C 100 20.186 96.126 24.06 91.354 24.06 L 8.646 24.06 C 3.874 24.06 0 20.186 0 15.415 L 0 15.415 C 0 10.644 3.874 6.77 8.646 6.77 Z" style="stroke:none;fill:#FF6C6C;stroke-miterlimit:10;"/><path d="M 8.646 41.35 L 91.354 41.35 C 96.126 41.35 100 45.226 100 50 L 100 50 C 100 54.774 96.126 58.65 91.354 58.65 L 8.646 58.65 C 3.874 58.65 0 54.774 0 50 L 0 50 C 0 45.226 3.874 41.35 8.646 41.35 Z" style="stroke:none;fill:#FF6C6C;stroke-miterlimit:10;"/><path d="M 8.646 75.94 L 91.354 75.94 C 96.126 75.94 100 79.814 100 84.585 L 100 84.585 C 100 89.356 96.126 93.23 91.354 93.23 L 8.646 93.23 C 3.874 93.23 0 89.356 0 84.585 L 0 84.585 C 0 79.814 3.874 75.94 8.646 75.94 Z" style="stroke:none;fill:#FF6C6C;stroke-miterlimit:10;"/></g></svg>